<svg width="20" height="24" viewBox="0 0 20 24" fill="none" xmlns="http://www.w3.org/2000/svg">
<path fill-rule="evenodd" clip-rule="evenodd" d="M3.63297 5.06081C3.63463 5.06081 3.59297 5.11281 3.54047 5.17481C3.3388 5.40981 2.9213 5.89881 2.91709 6.92181C2.91047 8.35281 3.69463 11.0098 7.47047 15.5398C11.2288 20.0478 13.4396 20.9998 14.6346 20.9998H14.6521C15.5046 20.9948 15.9113 20.4928 16.108 20.2518C16.168 20.1778 16.2163 20.1238 16.2505 20.0898C17.0805 19.0878 17.5055 18.3418 17.5013 17.8638C17.4955 17.3758 16.9896 16.7988 16.2905 16.0008C16.068 15.7468 15.8263 15.4708 15.5713 15.1648C14.9105 14.3738 14.583 14.5088 13.863 14.8128C12.8671 15.2318 11.5005 15.8018 9.37713 13.2528C7.25047 10.7028 7.7263 9.06481 8.07463 7.86981C8.3263 7.00581 8.4413 6.61181 7.77963 5.81781C7.52047 5.50781 7.28797 5.21381 7.0738 4.94381C6.41297 4.10981 5.9363 3.50681 5.53213 3.49981H5.52547C5.1263 3.49981 4.5063 4.01181 3.6288 5.06481C3.6313 5.06181 3.63213 5.06081 3.63297 5.06081ZM14.6355 22.4998C12.5588 22.4998 9.8513 20.5158 6.58713 16.6008C3.31047 12.6698 1.65463 9.41081 1.66706 6.91381C1.67463 5.26381 2.39547 4.41881 2.6663 4.10181C2.68047 4.08081 2.7288 4.02381 2.74547 4.00381C3.94047 2.56881 4.7463 1.98881 5.54797 1.99966C6.4788 2.01481 7.1413 2.85081 7.97963 3.90981C8.18713 4.17181 8.41213 4.45681 8.66297 4.75681C9.87963 6.21681 9.53297 7.40781 9.25463 8.36381C8.9513 9.40681 8.6888 10.3068 10.2605 12.1928C11.8338 14.0788 12.5838 13.7638 13.4496 13.3968C14.2471 13.0628 15.2371 12.6448 16.4555 14.1048C16.7021 14.4008 16.9363 14.6678 17.1521 14.9148C18.0388 15.9258 18.7388 16.7248 18.7506 17.8448C18.7605 18.7998 18.2771 19.7728 17.0838 21.2058L16.5555 20.7758L17.0021 21.2998C16.738 21.6248 16.0346 22.4908 14.6588 22.4998H14.6355Z" fill="white"/>
</svg>
