<svg width="23" height="24" viewBox="0 0 23 24" fill="none" xmlns="http://www.w3.org/2000/svg">
<path fill-rule="evenodd" clip-rule="evenodd" d="M11.7393 2C16.0987 2 19.6455 5.729 19.6455 10.313C19.6455 15.948 13.4585 21.5 11.7393 21.5C10.02 21.5 3.83301 15.948 3.83301 10.313C3.83301 5.729 7.3798 2 11.7393 2ZM11.7393 3.5C8.17234 3.5 5.27051 6.557 5.27051 10.313C5.27051 15.092 10.6602 19.748 11.7393 19.996C12.8183 19.747 18.208 15.091 18.208 10.313C18.208 6.557 15.3062 3.5 11.7393 3.5ZM11.7402 7C13.4575 7 14.8548 8.458 14.8548 10.251C14.8548 12.043 13.4575 13.5 11.7402 13.5C10.0229 13.5 8.62563 12.043 8.62563 10.251C8.62563 8.458 10.0229 7 11.7402 7ZM11.7402 8.5C10.8154 8.5 10.0631 9.285 10.0631 10.251C10.0631 11.216 10.8154 12 11.7402 12C12.665 12 13.4173 11.216 13.4173 10.251C13.4173 9.285 12.665 8.5 11.7402 8.5Z" fill="white"/>
</svg>
