<svg width="57" height="50" viewBox="0 0 57 50" fill="none" xmlns="http://www.w3.org/2000/svg">
<path d="M28.0989 0.00157166C23.7979 0.0778923 20.1356 2.63717 18.7934 6.12676C18.7984 6.11393 18.8016 6.10082 18.8065 6.08796C18.0899 5.83814 17.3222 5.69851 16.5329 5.69851H6.45077V14.6046C6.45077 15.3043 6.60988 15.9849 6.89497 16.62C6.89988 16.6185 6.90478 16.6175 6.90969 16.616C5.40292 17.0747 4.01379 17.836 2.88322 18.854C0.973534 20.5709 -0.0494576 22.8117 0.00183964 25.1702C0.0859256 28.9967 2.96247 32.2519 6.87682 33.422C6.60338 34.0458 6.45077 34.7122 6.45077 35.3967V44.3026H16.5329C17.3043 44.3026 18.0554 44.1691 18.7585 43.9295C18.7544 43.9186 18.7516 43.907 18.7475 43.8962C19.2329 45.2017 20.059 46.3983 21.1906 47.396C23.0865 49.0766 25.6133 50.0016 28.3001 50.0016C28.3685 50.0016 28.4365 49.9988 28.5047 49.9988C32.7899 49.9247 36.4437 47.3847 37.7989 43.9136C38.5153 44.1633 39.2824 44.3026 40.0713 44.3026H50.1534V35.3967C50.1534 34.6972 49.9944 34.017 49.7094 33.382C51.2102 32.9221 52.5932 32.1612 53.7206 31.1461C55.63 29.4293 56.653 27.1883 56.602 24.8299C56.5176 20.9977 53.6286 17.737 49.7033 16.5736C49.711 16.5759 49.7192 16.5774 49.727 16.5798C50.0007 15.9559 50.1534 15.2894 50.1534 14.6046V5.69851H40.0713C39.2999 5.69851 38.5492 5.83205 37.8461 6.07119C37.3584 4.77855 36.5364 3.59457 35.4165 2.60704C33.5148 0.924271 30.9979 5.72205e-05 28.2922 2.28882e-05C28.2278 2.28882e-05 28.1635 0.000514984 28.0989 0.00157166ZM3.40831 25.116C3.37744 23.5739 4.05607 22.0979 5.31429 20.9653C6.61359 19.7968 8.41051 19.128 10.2483 19.128H16.5088C19.3459 19.128 21.6544 17.089 21.6544 14.5829V9.05283C21.6544 5.78476 24.5766 3.077 28.1671 3.01362H28.3001C30.0801 3.01362 31.7475 3.62217 33.0023 4.73663C34.2605 5.84192 34.9528 7.31485 34.9528 8.88726V15.2125H38.3626V9.2269C38.8492 8.89463 39.448 8.71038 40.0713 8.71038H46.7435V14.6046C46.7435 15.1555 46.5347 15.685 46.1582 16.115H46.5448C46.5679 16.115 46.5903 16.1174 46.6132 16.1175C46.591 16.1175 46.5687 16.1161 46.5462 16.1161H39.3857H38.3626H34.9528H33.9299H30.1791C23.598 16.1161 18.2445 20.845 18.2445 26.6582V29.9714H21.6544V26.6582C21.6544 22.5047 25.4768 19.128 30.1791 19.128H33.9299H34.9528H38.3626H39.3857H46.5462C50.1403 19.128 53.1238 21.7124 53.1955 24.887C53.2261 26.4292 52.551 27.9022 51.2893 29.0347C49.9902 30.2034 48.1932 30.875 46.3587 30.875H40.0948C37.2579 30.875 34.9528 32.9111 34.9528 35.4172V40.9471C34.9528 44.2152 32.0306 46.9234 28.4365 46.9865L28.3001 46.9896C26.5237 46.9896 24.8562 46.3777 23.6013 45.2665C22.3431 44.1582 21.6544 42.6854 21.6544 41.1159V34.7907H18.2445V41.1159C18.2445 41.1421 18.2464 41.1682 18.2467 41.194C18.2463 41.1676 18.243 41.1417 18.243 41.1149V40.7732C17.7562 41.1058 17.1566 41.2905 16.5329 41.2905H9.86047V35.3967C9.86047 34.8462 10.0693 34.317 10.4454 33.8871H17.2215H18.2445H21.6544H22.6774H26.4281C33.0057 33.8871 38.3626 29.1581 38.3626 23.345V20.0317H34.9528V23.345C34.9528 27.4956 31.1269 30.875 26.4281 30.875H22.6774H21.6544H18.2445H17.2215H10.0608C6.46345 30.875 3.47976 28.2908 3.40831 25.116ZM10.2469 16.115H10.4456C10.0693 15.685 9.86047 15.1559 9.86047 14.6046V8.71038H16.5329C17.157 8.71038 17.7562 8.89463 18.243 9.22725V9.05318C18.243 9.02841 18.2461 9.00432 18.2465 8.97955C18.2461 9.00414 18.2445 9.02824 18.2445 9.05283V14.5829C18.2445 15.4294 17.467 16.1161 16.5088 16.1161H10.2483C10.2242 16.1161 10.2002 16.1175 10.176 16.1178C10.1997 16.1174 10.223 16.115 10.2469 16.115ZM38.3626 40.7747V35.4172C38.3626 34.5738 39.14 33.8871 40.0948 33.8871H46.159C46.5351 34.317 46.7435 34.8461 46.7435 35.3967V41.2905H40.0713C39.4476 41.2905 38.8491 41.1066 38.3626 40.7747Z" fill="url(#paint0_linear_48_56)"/>
<defs>
<linearGradient id="paint0_linear_48_56" x1="56.6038" y1="20.1273" x2="6.81976e-07" y2="20.1273" gradientUnits="userSpaceOnUse">
<stop stop-color="#006A4E"/>
<stop offset="1" stop-color="#ACE1AF"/>
</linearGradient>
</defs>
</svg>
