<svg width="50" height="53" viewBox="0 0 50 53" fill="none" xmlns="http://www.w3.org/2000/svg">
<path d="M24.8207 0.0016098C21.0215 0.081295 17.7864 2.75336 16.6009 6.39675C16.6052 6.38336 16.6081 6.36967 16.6124 6.35624C15.9794 6.09542 15.3013 5.94962 14.6041 5.94962H5.69818V15.2482C5.69818 15.9788 5.83873 16.6894 6.09056 17.3524C6.09489 17.3509 6.09923 17.3498 6.10356 17.3483C4.77258 17.8272 3.54552 18.6221 2.54684 19.6849C0.859955 21.4775 -0.0436875 23.8171 0.00162501 26.2795C0.0759009 30.2746 2.61685 33.6733 6.07452 34.895C5.83298 35.5463 5.69818 36.242 5.69818 36.9567V46.2551H14.6041C15.2854 46.2551 15.949 46.1157 16.57 45.8655C16.5664 45.8542 16.5639 45.8421 16.5603 45.8308C16.9891 47.1938 17.7188 48.4431 18.7184 49.4848C20.393 51.2395 22.6251 52.2053 24.9984 52.2053C25.0588 52.2053 25.1189 52.2023 25.1791 52.2023C28.9644 52.125 32.1919 49.473 33.389 45.849C34.0218 46.1096 34.6994 46.2551 35.3963 46.2551H44.3022V36.9567C44.3022 36.2263 44.1617 35.5162 43.91 34.8532C45.2357 34.373 46.4574 33.5786 47.4532 32.5187C49.1399 30.7263 50.0435 28.3866 49.9984 25.9242C49.9239 21.9231 47.372 18.5187 43.9046 17.304C43.9114 17.3064 43.9187 17.308 43.9255 17.3105C44.1672 16.6591 44.3022 15.9632 44.3022 15.2482V5.94962H35.3963C34.7149 5.94962 34.0518 6.08906 33.4307 6.33874C32.9999 4.98913 32.2738 3.75297 31.2845 2.7219C29.6048 0.964977 27.3815 3.05176e-05 24.9915 -7.62939e-06C24.9346 -7.62939e-06 24.8778 0.000507355 24.8207 0.0016098ZM3.01068 26.2229C2.98341 24.6129 3.58286 23.0718 4.69429 21.8893C5.842 20.6693 7.42928 19.971 9.05268 19.971H14.5827C17.0889 19.971 19.1281 17.8421 19.1281 15.2256V9.45178C19.1281 6.03968 21.7094 3.21259 24.881 3.1464H24.9984C26.5707 3.1464 28.0436 3.78178 29.152 4.94535C30.2635 6.09936 30.875 7.63721 30.875 9.27892V15.8829H33.8869V9.63352C34.3168 9.28661 34.8457 9.09424 35.3963 9.09424H41.2901V15.2482C41.2901 15.8234 41.1057 16.3762 40.7731 16.8252H41.1145C41.135 16.8252 41.1548 16.8277 41.175 16.8278C41.1554 16.8278 41.1357 16.8264 41.1158 16.8264H34.7907H33.8869H30.875H29.9714H26.6582C20.8449 16.8264 16.116 21.7637 16.116 27.8331V31.2923H19.1281V27.8331C19.1281 23.4965 22.5045 19.971 26.6582 19.971H29.9714H30.875H33.8869H34.7907H41.1158C44.2906 19.971 46.926 22.6693 46.9894 25.9838C47.0164 27.594 46.42 29.1319 45.3055 30.3144C44.158 31.5345 42.5707 32.2357 40.9502 32.2357H35.4171C32.9112 32.2357 30.875 34.3616 30.875 36.9781V42.7518C30.875 46.1639 28.2937 48.9914 25.1189 49.0572L24.9984 49.0606C23.4293 49.0606 21.9563 48.4217 20.8478 47.2615C19.7364 46.1043 19.1281 44.5666 19.1281 42.9279V36.3239H16.116V42.9279C16.116 42.9553 16.1177 42.9825 16.1179 43.0095C16.1176 42.9819 16.1147 42.9549 16.1147 42.9269V42.5702C15.6847 42.9175 15.155 43.1103 14.6041 43.1103H8.71008V36.9567C8.71008 36.382 8.8945 35.8294 9.22677 35.3806H15.2124H16.116H19.1281H20.0317H23.3448C29.1551 35.3806 33.8869 30.4432 33.8869 24.3739V20.9145H30.875V24.3739C30.875 28.7074 27.4954 32.2357 23.3448 32.2357H20.0317H19.1281H16.116H15.2124H8.88707C5.70938 32.2357 3.07378 29.5376 3.01068 26.2229ZM9.05144 16.8252H9.22695C8.89451 16.3762 8.71008 15.8238 8.71008 15.2482V9.09424H14.6041C15.1553 9.09424 15.6847 9.28661 16.1147 9.63389V9.45215C16.1147 9.42629 16.1174 9.40113 16.1178 9.37527C16.1174 9.40095 16.116 9.42611 16.116 9.45178V15.2256C16.116 16.1093 15.4292 16.8264 14.5827 16.8264H9.05268C9.0314 16.8264 9.01015 16.8278 8.98883 16.8281C9.00973 16.8277 9.03034 16.8252 9.05144 16.8252ZM33.8869 42.5717V36.9781C33.8869 36.0976 34.5737 35.3806 35.4171 35.3806H40.7738C41.106 35.8294 41.2901 36.3818 41.2901 36.9567V43.1103H35.3963C34.8454 43.1103 34.3167 42.9183 33.8869 42.5717Z" fill="white"/>
</svg>
