<svg width="22" height="24" viewBox="0 0 22 24" fill="none" xmlns="http://www.w3.org/2000/svg">
<path fill-rule="evenodd" clip-rule="evenodd" d="M15.2706 2C18.3231 2 20.6248 4.717 20.6248 8.32V15.188C20.6248 17.032 20.0272 18.698 18.9409 19.88C17.9665 20.939 16.7024 21.5 15.2853 21.5H6.25334C4.83892 21.5 3.57575 20.94 2.60042 19.88C1.51417 18.698 0.916504 17.032 0.916504 15.188V8.32C0.916504 4.717 3.21825 2 6.27075 2H15.2706ZM15.2706 3.5H6.27075C3.96534 3.5 2.2915 5.527 2.2915 8.32V15.188C2.2915 16.631 2.74617 17.92 3.57117 18.817C4.2825 19.592 5.21109 20 6.25609 20H15.2706C15.2724 19.998 15.2798 20 15.2853 20C16.3312 20 17.2588 19.592 17.9702 18.817C18.7961 17.92 19.2498 16.631 19.2498 15.188V8.32C19.2498 5.527 17.576 3.5 15.2706 3.5ZM16.7153 8.1288C16.9545 8.4498 16.9096 8.9218 16.6153 9.1838L12.5417 12.7958C12.0265 13.2418 11.4105 13.4648 10.7954 13.4648C10.1822 13.4648 9.57075 13.2438 9.05925 12.8018L4.948 9.1858C4.65192 8.9258 4.60609 8.4528 4.8435 8.1308C5.08275 7.8098 5.51542 7.7588 5.81059 8.0178L9.91817 11.6298C10.4343 12.0758 11.1612 12.0758 11.6809 11.6258L15.7473 8.0198C16.0424 7.7568 16.4751 7.8068 16.7153 8.1288Z" fill="white"/>
</svg>
