<svg width="207" height="50" viewBox="0 0 207 50" fill="none" xmlns="http://www.w3.org/2000/svg">
<path d="M24.8207 0.00157166C21.0215 0.0778923 17.7864 2.63717 16.6009 6.12676C16.6052 6.11393 16.6081 6.10082 16.6124 6.08796C15.9794 5.83814 15.3013 5.69851 14.6041 5.69851H5.69818V14.6046C5.69818 15.3043 5.83873 15.9849 6.09056 16.62C6.09489 16.6185 6.09923 16.6175 6.10356 16.616C4.77258 17.0747 3.54552 17.836 2.54684 18.854C0.859955 20.5709 -0.0436875 22.8117 0.00162501 25.1702C0.0759009 28.9967 2.61685 32.2519 6.07452 33.422C5.83298 34.0458 5.69818 34.7122 5.69818 35.3967V44.3026H14.6041C15.2854 44.3026 15.949 44.1691 16.57 43.9295C16.5664 43.9186 16.5639 43.907 16.5603 43.8962C16.9891 45.2017 17.7188 46.3983 18.7184 47.396C20.393 49.0766 22.6251 50.0016 24.9984 50.0016C25.0588 50.0016 25.1189 49.9988 25.1791 49.9988C28.9644 49.9247 32.1919 47.3847 33.389 43.9136C34.0218 44.1633 34.6994 44.3026 35.3963 44.3026H44.3022V35.3967C44.3022 34.6972 44.1617 34.017 43.91 33.382C45.2357 32.9221 46.4574 32.1612 47.4532 31.1461C49.1399 29.4293 50.0435 27.1883 49.9984 24.8299C49.9239 20.9977 47.372 17.737 43.9046 16.5736C43.9114 16.5759 43.9187 16.5774 43.9255 16.5798C44.1672 15.9559 44.3022 15.2894 44.3022 14.6046V5.69851H35.3963C34.7149 5.69851 34.0518 5.83205 33.4307 6.07119C32.9999 4.77855 32.2738 3.59457 31.2845 2.60704C29.6048 0.924271 27.3815 5.72205e-05 24.9915 2.28882e-05C24.9346 2.28882e-05 24.8778 0.000514984 24.8207 0.00157166ZM3.01068 25.116C2.98341 23.5739 3.58286 22.0979 4.69429 20.9653C5.842 19.7968 7.42928 19.128 9.05268 19.128H14.5827C17.0889 19.128 19.1281 17.089 19.1281 14.5829V9.05283C19.1281 5.78476 21.7094 3.077 24.881 3.01362H24.9984C26.5707 3.01362 28.0436 3.62217 29.152 4.73663C30.2635 5.84192 30.875 7.31485 30.875 8.88726V15.2125H33.8869V9.2269C34.3168 8.89463 34.8457 8.71038 35.3963 8.71038H41.2901V14.6046C41.2901 15.1555 41.1057 15.685 40.7731 16.115H41.1145C41.135 16.115 41.1548 16.1174 41.175 16.1175C41.1554 16.1175 41.1357 16.1161 41.1158 16.1161H34.7907H33.8869H30.875H29.9714H26.6582C20.8449 16.1161 16.116 20.845 16.116 26.6582V29.9714H19.1281V26.6582C19.1281 22.5047 22.5045 19.128 26.6582 19.128H29.9714H30.875H33.8869H34.7907H41.1158C44.2906 19.128 46.926 21.7124 46.9894 24.887C47.0164 26.4292 46.42 27.9022 45.3055 29.0347C44.158 30.2034 42.5707 30.875 40.9502 30.875H35.4171C32.9112 30.875 30.875 32.9111 30.875 35.4172V40.9471C30.875 44.2152 28.2937 46.9234 25.1189 46.9865L24.9984 46.9896C23.4293 46.9896 21.9563 46.3777 20.8478 45.2665C19.7364 44.1582 19.1281 42.6854 19.1281 41.1159V34.7907H16.116V41.1159C16.116 41.1421 16.1177 41.1682 16.1179 41.194C16.1176 41.1676 16.1147 41.1417 16.1147 41.1149V40.7732C15.6847 41.1058 15.155 41.2905 14.6041 41.2905H8.71008V35.3967C8.71008 34.8462 8.8945 34.317 9.22677 33.8871H15.2124H16.116H19.1281H20.0317H23.3448C29.1551 33.8871 33.8869 29.1581 33.8869 23.345V20.0317H30.875V23.345C30.875 27.4956 27.4954 30.875 23.3448 30.875H20.0317H19.1281H16.116H15.2124H8.88707C5.70938 30.875 3.07378 28.2908 3.01068 25.116ZM9.05144 16.115H9.22695C8.89451 15.685 8.71008 15.1559 8.71008 14.6046V8.71038H14.6041C15.1553 8.71038 15.6847 8.89463 16.1147 9.22725V9.05318C16.1147 9.02841 16.1174 9.00432 16.1178 8.97955C16.1174 9.00414 16.116 9.02824 16.116 9.05283V14.5829C16.116 15.4294 15.4292 16.1161 14.5827 16.1161H9.05268C9.0314 16.1161 9.01015 16.1175 8.98883 16.1178C9.00973 16.1174 9.03034 16.115 9.05144 16.115ZM33.8869 40.7747V35.4172C33.8869 34.5738 34.5737 33.8871 35.4171 33.8871H40.7738C41.106 34.317 41.2901 34.8461 41.2901 35.3967V41.2905H35.3963C34.8454 41.2905 34.3167 41.1066 33.8869 40.7747Z" fill="url(#paint0_linear_84_38)"/>
<path d="M24.8207 0.00157166C21.0215 0.0778923 17.7864 2.63717 16.6009 6.12676C16.6052 6.11393 16.6081 6.10082 16.6124 6.08796C15.9794 5.83814 15.3013 5.69851 14.6041 5.69851H5.69818V14.6046C5.69818 15.3043 5.83873 15.9849 6.09056 16.62C6.09489 16.6185 6.09923 16.6175 6.10356 16.616C4.77258 17.0747 3.54552 17.836 2.54684 18.854C0.859955 20.5709 -0.0436875 22.8117 0.00162501 25.1702C0.0759009 28.9967 2.61685 32.2519 6.07452 33.422C5.83298 34.0458 5.69818 34.7122 5.69818 35.3967V44.3026H14.6041C15.2854 44.3026 15.949 44.1691 16.57 43.9295C16.5664 43.9186 16.5639 43.907 16.5603 43.8962C16.9891 45.2017 17.7188 46.3983 18.7184 47.396C20.393 49.0766 22.6251 50.0016 24.9984 50.0016C25.0588 50.0016 25.1189 49.9988 25.1791 49.9988C28.9644 49.9247 32.1919 47.3847 33.389 43.9136C34.0218 44.1633 34.6994 44.3026 35.3963 44.3026H44.3022V35.3967C44.3022 34.6972 44.1617 34.017 43.91 33.382C45.2357 32.9221 46.4574 32.1612 47.4532 31.1461C49.1399 29.4293 50.0435 27.1883 49.9984 24.8299C49.9239 20.9977 47.372 17.737 43.9046 16.5736C43.9114 16.5759 43.9187 16.5774 43.9255 16.5798C44.1672 15.9559 44.3022 15.2894 44.3022 14.6046V5.69851H35.3963C34.7149 5.69851 34.0518 5.83205 33.4307 6.07119C32.9999 4.77855 32.2738 3.59457 31.2845 2.60704C29.6048 0.924271 27.3815 5.72205e-05 24.9915 2.28882e-05C24.9346 2.28882e-05 24.8778 0.000514984 24.8207 0.00157166ZM3.01068 25.116C2.98341 23.5739 3.58286 22.0979 4.69429 20.9653C5.842 19.7968 7.42928 19.128 9.05268 19.128H14.5827C17.0889 19.128 19.1281 17.089 19.1281 14.5829V9.05283C19.1281 5.78476 21.7094 3.077 24.881 3.01362H24.9984C26.5707 3.01362 28.0436 3.62217 29.152 4.73663C30.2635 5.84192 30.875 7.31485 30.875 8.88726V15.2125H33.8869V9.2269C34.3168 8.89463 34.8457 8.71038 35.3963 8.71038H41.2901V14.6046C41.2901 15.1555 41.1057 15.685 40.7731 16.115H41.1145C41.135 16.115 41.1548 16.1174 41.175 16.1175C41.1554 16.1175 41.1357 16.1161 41.1158 16.1161H34.7907H33.8869H30.875H29.9714H26.6582C20.8449 16.1161 16.116 20.845 16.116 26.6582V29.9714H19.1281V26.6582C19.1281 22.5047 22.5045 19.128 26.6582 19.128H29.9714H30.875H33.8869H34.7907H41.1158C44.2906 19.128 46.926 21.7124 46.9894 24.887C47.0164 26.4292 46.42 27.9022 45.3055 29.0347C44.158 30.2034 42.5707 30.875 40.9502 30.875H35.4171C32.9112 30.875 30.875 32.9111 30.875 35.4172V40.9471C30.875 44.2152 28.2937 46.9234 25.1189 46.9865L24.9984 46.9896C23.4293 46.9896 21.9563 46.3777 20.8478 45.2665C19.7364 44.1582 19.1281 42.6854 19.1281 41.1159V34.7907H16.116V41.1159C16.116 41.1421 16.1177 41.1682 16.1179 41.194C16.1176 41.1676 16.1147 41.1417 16.1147 41.1149V40.7732C15.6847 41.1058 15.155 41.2905 14.6041 41.2905H8.71008V35.3967C8.71008 34.8462 8.8945 34.317 9.22677 33.8871H15.2124H16.116H19.1281H20.0317H23.3448C29.1551 33.8871 33.8869 29.1581 33.8869 23.345V20.0317H30.875V23.345C30.875 27.4956 27.4954 30.875 23.3448 30.875H20.0317H19.1281H16.116H15.2124H8.88707C5.70938 30.875 3.07378 28.2908 3.01068 25.116ZM9.05144 16.115H9.22695C8.89451 15.685 8.71008 15.1559 8.71008 14.6046V8.71038H14.6041C15.1553 8.71038 15.6847 8.89463 16.1147 9.22725V9.05318C16.1147 9.02841 16.1174 9.00432 16.1178 8.97955C16.1174 9.00414 16.116 9.02824 16.116 9.05283V14.5829C16.116 15.4294 15.4292 16.1161 14.5827 16.1161H9.05268C9.0314 16.1161 9.01015 16.1175 8.98883 16.1178C9.00973 16.1174 9.03034 16.115 9.05144 16.115ZM33.8869 40.7747V35.4172C33.8869 34.5738 34.5737 33.8871 35.4171 33.8871H40.7738C41.106 34.317 41.2901 34.8461 41.2901 35.3967V41.2905H35.3963C34.8454 41.2905 34.3167 41.1066 33.8869 40.7747Z" fill="url(#paint1_linear_84_38)"/>
<path d="M67.96 36V15.84H70.998L77.97 30.12L84.942 15.84H87.98V36H84.83V23.078L78.642 36H77.298L71.124 23.078V36H67.96ZM92.1931 18.584V15.49H95.5671V18.584H92.1931ZM92.1931 36V20.88H95.5671V36H92.1931ZM110.219 36V28.72C110.219 28.244 110.186 27.7167 110.121 27.138C110.055 26.5593 109.901 26.004 109.659 25.472C109.425 24.9307 109.071 24.4873 108.595 24.142C108.128 23.7967 107.493 23.624 106.691 23.624C106.261 23.624 105.837 23.694 105.417 23.834C104.997 23.974 104.614 24.2167 104.269 24.562C103.933 24.898 103.662 25.3647 103.457 25.962C103.251 26.55 103.149 27.306 103.149 28.23L101.147 27.376C101.147 26.088 101.394 24.9213 101.889 23.876C102.393 22.8307 103.13 22 104.101 21.384C105.071 20.7587 106.266 20.446 107.685 20.446C108.805 20.446 109.729 20.6327 110.457 21.006C111.185 21.3793 111.763 21.8553 112.193 22.434C112.622 23.0127 112.939 23.6287 113.145 24.282C113.35 24.9353 113.481 25.556 113.537 26.144C113.602 26.7227 113.635 27.194 113.635 27.558V36H110.219ZM99.7328 36V20.88H102.743V25.57H103.149V36H99.7328ZM123.104 36.42C121.713 36.42 120.5 36.07 119.464 35.37C118.428 34.67 117.625 33.718 117.056 32.514C116.487 31.31 116.202 29.952 116.202 28.44C116.202 26.9093 116.487 25.5467 117.056 24.352C117.635 23.148 118.451 22.2007 119.506 21.51C120.561 20.81 121.802 20.46 123.23 20.46C124.667 20.46 125.871 20.81 126.842 21.51C127.822 22.2007 128.564 23.148 129.068 24.352C129.572 25.556 129.824 26.9187 129.824 28.44C129.824 29.9427 129.572 31.3007 129.068 32.514C128.564 33.718 127.813 34.67 126.814 35.37C125.815 36.07 124.579 36.42 123.104 36.42ZM123.622 33.396C124.527 33.396 125.255 33.1907 125.806 32.78C126.366 32.36 126.772 31.7767 127.024 31.03C127.285 30.2833 127.416 29.42 127.416 28.44C127.416 27.4507 127.285 26.5873 127.024 25.85C126.772 25.1033 126.375 24.5247 125.834 24.114C125.293 23.694 124.593 23.484 123.734 23.484C122.829 23.484 122.082 23.708 121.494 24.156C120.906 24.5947 120.472 25.192 120.192 25.948C119.912 26.6947 119.772 27.5253 119.772 28.44C119.772 29.364 119.907 30.204 120.178 30.96C120.458 31.7067 120.883 32.2993 121.452 32.738C122.021 33.1767 122.745 33.396 123.622 33.396ZM127.416 36V25.388H126.996V15.84H130.398V36H127.416ZM139.167 36V19.004H132.643V15.84H149.065V19.004H142.541V36H139.167ZM149.909 36V20.88H152.891V24.562L152.527 24.086C152.714 23.582 152.961 23.1247 153.269 22.714C153.587 22.294 153.965 21.9487 154.403 21.678C154.777 21.426 155.187 21.23 155.635 21.09C156.093 20.9407 156.559 20.852 157.035 20.824C157.511 20.7867 157.973 20.8053 158.421 20.88V24.03C157.973 23.8993 157.455 23.8573 156.867 23.904C156.289 23.9507 155.766 24.114 155.299 24.394C154.833 24.646 154.45 24.968 154.151 25.36C153.862 25.752 153.647 26.2 153.507 26.704C153.367 27.1987 153.297 27.7353 153.297 28.314V36H149.909ZM164.965 36.42C163.873 36.42 162.949 36.2147 162.193 35.804C161.437 35.384 160.863 34.8287 160.471 34.138C160.089 33.4473 159.897 32.6867 159.897 31.856C159.897 31.128 160.019 30.4747 160.261 29.896C160.504 29.308 160.877 28.804 161.381 28.384C161.885 27.9547 162.539 27.6047 163.341 27.334C163.948 27.138 164.657 26.9607 165.469 26.802C166.291 26.6433 167.177 26.4987 168.129 26.368C169.091 26.228 170.094 26.0787 171.139 25.92L169.935 26.606C169.945 25.5607 169.711 24.7907 169.235 24.296C168.759 23.8013 167.957 23.554 166.827 23.554C166.146 23.554 165.488 23.7127 164.853 24.03C164.219 24.3473 163.775 24.8933 163.523 25.668L160.443 24.702C160.817 23.4233 161.526 22.3967 162.571 21.622C163.626 20.8473 165.045 20.46 166.827 20.46C168.171 20.46 169.352 20.6793 170.369 21.118C171.396 21.5567 172.157 22.2753 172.651 23.274C172.922 23.806 173.085 24.352 173.141 24.912C173.197 25.4627 173.225 26.0647 173.225 26.718V36H170.271V32.724L170.761 33.256C170.08 34.348 169.282 35.1507 168.367 35.664C167.462 36.168 166.328 36.42 164.965 36.42ZM165.637 33.732C166.403 33.732 167.056 33.5967 167.597 33.326C168.139 33.0553 168.568 32.724 168.885 32.332C169.212 31.94 169.431 31.5713 169.543 31.226C169.721 30.7967 169.819 30.3067 169.837 29.756C169.865 29.196 169.879 28.7433 169.879 28.398L170.915 28.706C169.898 28.8647 169.025 29.0047 168.297 29.126C167.569 29.2473 166.944 29.364 166.421 29.476C165.899 29.5787 165.437 29.6953 165.035 29.826C164.643 29.966 164.312 30.1293 164.041 30.316C163.771 30.5027 163.561 30.7173 163.411 30.96C163.271 31.2027 163.201 31.4873 163.201 31.814C163.201 32.1873 163.295 32.5187 163.481 32.808C163.668 33.088 163.939 33.312 164.293 33.48C164.657 33.648 165.105 33.732 165.637 33.732ZM183.436 36.42C181.877 36.42 180.547 36.0747 179.446 35.384C178.345 34.684 177.5 33.732 176.912 32.528C176.333 31.324 176.039 29.9613 176.03 28.44C176.039 26.8907 176.343 25.5187 176.94 24.324C177.547 23.12 178.405 22.1773 179.516 21.496C180.627 20.8053 181.947 20.46 183.478 20.46C185.195 20.46 186.647 20.894 187.832 21.762C189.027 22.6207 189.806 23.7967 190.17 25.29L186.81 26.2C186.549 25.388 186.115 24.758 185.508 24.31C184.901 23.8527 184.211 23.624 183.436 23.624C182.559 23.624 181.835 23.834 181.266 24.254C180.697 24.6647 180.277 25.234 180.006 25.962C179.735 26.69 179.6 27.516 179.6 28.44C179.6 29.8773 179.922 31.0393 180.566 31.926C181.21 32.8127 182.167 33.256 183.436 33.256C184.332 33.256 185.037 33.0507 185.55 32.64C186.073 32.2293 186.465 31.6367 186.726 30.862L190.17 31.632C189.703 33.172 188.887 34.3573 187.72 35.188C186.553 36.0093 185.125 36.42 183.436 36.42ZM192.948 36L192.976 15.84H196.392V28.16L201.922 20.88H206.136L200.27 28.44L206.64 36H202.174L196.392 28.72V36H192.948Z" fill="#1A1A1A"/>
<path d="M67.96 36V15.84H70.998L77.97 30.12L84.942 15.84H87.98V36H84.83V23.078L78.642 36H77.298L71.124 23.078V36H67.96ZM92.1931 18.584V15.49H95.5671V18.584H92.1931ZM92.1931 36V20.88H95.5671V36H92.1931ZM110.219 36V28.72C110.219 28.244 110.186 27.7167 110.121 27.138C110.055 26.5593 109.901 26.004 109.659 25.472C109.425 24.9307 109.071 24.4873 108.595 24.142C108.128 23.7967 107.493 23.624 106.691 23.624C106.261 23.624 105.837 23.694 105.417 23.834C104.997 23.974 104.614 24.2167 104.269 24.562C103.933 24.898 103.662 25.3647 103.457 25.962C103.251 26.55 103.149 27.306 103.149 28.23L101.147 27.376C101.147 26.088 101.394 24.9213 101.889 23.876C102.393 22.8307 103.13 22 104.101 21.384C105.071 20.7587 106.266 20.446 107.685 20.446C108.805 20.446 109.729 20.6327 110.457 21.006C111.185 21.3793 111.763 21.8553 112.193 22.434C112.622 23.0127 112.939 23.6287 113.145 24.282C113.35 24.9353 113.481 25.556 113.537 26.144C113.602 26.7227 113.635 27.194 113.635 27.558V36H110.219ZM99.7328 36V20.88H102.743V25.57H103.149V36H99.7328ZM123.104 36.42C121.713 36.42 120.5 36.07 119.464 35.37C118.428 34.67 117.625 33.718 117.056 32.514C116.487 31.31 116.202 29.952 116.202 28.44C116.202 26.9093 116.487 25.5467 117.056 24.352C117.635 23.148 118.451 22.2007 119.506 21.51C120.561 20.81 121.802 20.46 123.23 20.46C124.667 20.46 125.871 20.81 126.842 21.51C127.822 22.2007 128.564 23.148 129.068 24.352C129.572 25.556 129.824 26.9187 129.824 28.44C129.824 29.9427 129.572 31.3007 129.068 32.514C128.564 33.718 127.813 34.67 126.814 35.37C125.815 36.07 124.579 36.42 123.104 36.42ZM123.622 33.396C124.527 33.396 125.255 33.1907 125.806 32.78C126.366 32.36 126.772 31.7767 127.024 31.03C127.285 30.2833 127.416 29.42 127.416 28.44C127.416 27.4507 127.285 26.5873 127.024 25.85C126.772 25.1033 126.375 24.5247 125.834 24.114C125.293 23.694 124.593 23.484 123.734 23.484C122.829 23.484 122.082 23.708 121.494 24.156C120.906 24.5947 120.472 25.192 120.192 25.948C119.912 26.6947 119.772 27.5253 119.772 28.44C119.772 29.364 119.907 30.204 120.178 30.96C120.458 31.7067 120.883 32.2993 121.452 32.738C122.021 33.1767 122.745 33.396 123.622 33.396ZM127.416 36V25.388H126.996V15.84H130.398V36H127.416ZM139.167 36V19.004H132.643V15.84H149.065V19.004H142.541V36H139.167ZM149.909 36V20.88H152.891V24.562L152.527 24.086C152.714 23.582 152.961 23.1247 153.269 22.714C153.587 22.294 153.965 21.9487 154.403 21.678C154.777 21.426 155.187 21.23 155.635 21.09C156.093 20.9407 156.559 20.852 157.035 20.824C157.511 20.7867 157.973 20.8053 158.421 20.88V24.03C157.973 23.8993 157.455 23.8573 156.867 23.904C156.289 23.9507 155.766 24.114 155.299 24.394C154.833 24.646 154.45 24.968 154.151 25.36C153.862 25.752 153.647 26.2 153.507 26.704C153.367 27.1987 153.297 27.7353 153.297 28.314V36H149.909ZM164.965 36.42C163.873 36.42 162.949 36.2147 162.193 35.804C161.437 35.384 160.863 34.8287 160.471 34.138C160.089 33.4473 159.897 32.6867 159.897 31.856C159.897 31.128 160.019 30.4747 160.261 29.896C160.504 29.308 160.877 28.804 161.381 28.384C161.885 27.9547 162.539 27.6047 163.341 27.334C163.948 27.138 164.657 26.9607 165.469 26.802C166.291 26.6433 167.177 26.4987 168.129 26.368C169.091 26.228 170.094 26.0787 171.139 25.92L169.935 26.606C169.945 25.5607 169.711 24.7907 169.235 24.296C168.759 23.8013 167.957 23.554 166.827 23.554C166.146 23.554 165.488 23.7127 164.853 24.03C164.219 24.3473 163.775 24.8933 163.523 25.668L160.443 24.702C160.817 23.4233 161.526 22.3967 162.571 21.622C163.626 20.8473 165.045 20.46 166.827 20.46C168.171 20.46 169.352 20.6793 170.369 21.118C171.396 21.5567 172.157 22.2753 172.651 23.274C172.922 23.806 173.085 24.352 173.141 24.912C173.197 25.4627 173.225 26.0647 173.225 26.718V36H170.271V32.724L170.761 33.256C170.08 34.348 169.282 35.1507 168.367 35.664C167.462 36.168 166.328 36.42 164.965 36.42ZM165.637 33.732C166.403 33.732 167.056 33.5967 167.597 33.326C168.139 33.0553 168.568 32.724 168.885 32.332C169.212 31.94 169.431 31.5713 169.543 31.226C169.721 30.7967 169.819 30.3067 169.837 29.756C169.865 29.196 169.879 28.7433 169.879 28.398L170.915 28.706C169.898 28.8647 169.025 29.0047 168.297 29.126C167.569 29.2473 166.944 29.364 166.421 29.476C165.899 29.5787 165.437 29.6953 165.035 29.826C164.643 29.966 164.312 30.1293 164.041 30.316C163.771 30.5027 163.561 30.7173 163.411 30.96C163.271 31.2027 163.201 31.4873 163.201 31.814C163.201 32.1873 163.295 32.5187 163.481 32.808C163.668 33.088 163.939 33.312 164.293 33.48C164.657 33.648 165.105 33.732 165.637 33.732ZM183.436 36.42C181.877 36.42 180.547 36.0747 179.446 35.384C178.345 34.684 177.5 33.732 176.912 32.528C176.333 31.324 176.039 29.9613 176.03 28.44C176.039 26.8907 176.343 25.5187 176.94 24.324C177.547 23.12 178.405 22.1773 179.516 21.496C180.627 20.8053 181.947 20.46 183.478 20.46C185.195 20.46 186.647 20.894 187.832 21.762C189.027 22.6207 189.806 23.7967 190.17 25.29L186.81 26.2C186.549 25.388 186.115 24.758 185.508 24.31C184.901 23.8527 184.211 23.624 183.436 23.624C182.559 23.624 181.835 23.834 181.266 24.254C180.697 24.6647 180.277 25.234 180.006 25.962C179.735 26.69 179.6 27.516 179.6 28.44C179.6 29.8773 179.922 31.0393 180.566 31.926C181.21 32.8127 182.167 33.256 183.436 33.256C184.332 33.256 185.037 33.0507 185.55 32.64C186.073 32.2293 186.465 31.6367 186.726 30.862L190.17 31.632C189.703 33.172 188.887 34.3573 187.72 35.188C186.553 36.0093 185.125 36.42 183.436 36.42ZM192.948 36L192.976 15.84H196.392V28.16L201.922 20.88H206.136L200.27 28.44L206.64 36H202.174L196.392 28.72V36H192.948Z" fill="#1A1A1A"/>
<defs>
<linearGradient id="paint0_linear_84_38" x1="50" y1="20.1273" x2="6.02412e-07" y2="20.1273" gradientUnits="userSpaceOnUse">
<stop stop-color="#006A4E"/>
<stop offset="1" stop-color="#006A4E"/>
</linearGradient>
<linearGradient id="paint1_linear_84_38" x1="50" y1="20.1273" x2="6.02412e-07" y2="20.1273" gradientUnits="userSpaceOnUse">
<stop stop-color="#006A4E"/>
<stop offset="1" stop-color="#006A4E"/>
</linearGradient>
</defs>
</svg>
